<svg xmlns="http://www.w3.org/2000/svg" width="119.274" height="191.107" viewBox="0 0 119.274 191.107">
  <g id="Groupe_86" data-name="Groupe 86" transform="translate(29.815 -0.037) rotate(13)">
    <circle id="Ellipse_23" data-name="Ellipse 23" cx="15.879" cy="15.879" r="15.879" transform="translate(31.478 149.814)" fill="#fefefe"/>
    <path id="Tracé_108" data-name="Tracé 108" d="M45.493,0A45.951,45.951,0,0,0,0,45.158c0,.229,0,1.84,0,3.947A11.649,11.649,0,0,0,11.648,60.754h0A11.656,11.656,0,0,0,23.3,49.09c0-1.436,0-2.428,0-2.489A22.093,22.093,0,1,1,57.309,65.2l0,0S40.734,75.878,35.68,90.52h0a32.449,32.449,0,0,0-1.337,9.24c0,1.286.076,12.538.222,21.671a12.008,12.008,0,0,0,12.009,11.813h0a12.011,12.011,0,0,0,12.011-12.085c-.051-8.364-.078-18.1-.078-18.809,0-8.99,8.673-17.948,15.8-23.79A47.915,47.915,0,0,0,90.786,52.326a29.954,29.954,0,0,0,.863-6.5A45.825,45.825,0,0,0,45.493,0Z" transform="translate(0.163)" fill="#fefefe"/>
    <path id="Tracé_109" data-name="Tracé 109" d="M15.1,36.276h0A11.649,11.649,0,0,1,3.452,24.629c0-2.108,0-3.719,0-3.948A45.4,45.4,0,0,1,8.758,0,45.5,45.5,0,0,0,0,26.2c0,.229,0,1.84,0,3.947A11.649,11.649,0,0,0,11.648,41.8h0a11.658,11.658,0,0,0,11.215-8.489A11.606,11.606,0,0,1,15.1,36.276Z" transform="translate(0 18.968)" fill="#fefefe"/>
    <path id="Tracé_110" data-name="Tracé 110" d="M17.87,5.548A22.094,22.094,0,0,1,37.083,36.413,22.091,22.091,0,1,0,0,13.29,22.048,22.048,0,0,1,17.87,5.548Z" transform="translate(28.576 18.998)" fill="#fefefe"/>
    <path id="Tracé_111" data-name="Tracé 111" d="M15.683,47.109h0A12.009,12.009,0,0,1,3.674,35.293c-.146-9.13-.222-20.382-.222-21.668a32.452,32.452,0,0,1,1.337-9.24h0A32.835,32.835,0,0,1,6.681,0,38,38,0,0,0,1.333,9.907h0A32.45,32.45,0,0,0,0,19.149c0,1.286.076,12.538.222,21.67A12.008,12.008,0,0,0,12.231,52.632h0a12.013,12.013,0,0,0,11.53-8.645A11.965,11.965,0,0,1,15.683,47.109Z" transform="translate(34.347 80.626)" fill="#fefefe"/>
    <path id="Tracé_112" data-name="Tracé 112" d="M12.408,24.678A15.877,15.877,0,0,1,6.516,0a15.878,15.878,0,1,0,21.6,22.943A15.869,15.869,0,0,1,12.408,24.678Z" transform="translate(31.45 153.021)" fill="#fefefe"/>
  </g>
</svg>
