<svg xmlns="http://www.w3.org/2000/svg" width="595.563" height="447.625" viewBox="0 0 595.563 447.625">
  <g id="vote" transform="translate(0.003 0)">
    <circle id="Ellipse_6" data-name="Ellipse 6" cx="14.27" cy="14.27" r="14.27" transform="translate(488.379 143.553)" fill="#6c63ff" opacity="0.4"/>
    <circle id="Ellipse_7" data-name="Ellipse 7" cx="20.343" cy="20.343" r="20.343" transform="translate(181.426 52.897)" fill="#6c63ff" opacity="0.4"/>
    <circle id="Ellipse_8" data-name="Ellipse 8" cx="14.27" cy="14.27" r="14.27" transform="translate(149.849 68.686)" fill="#6c63ff" opacity="0.4"/>
    <path id="Tracé_3" data-name="Tracé 3" d="M926.785,586.055C915.509,598.4,915.1,616.383,915.1,616.383s17.872-2.032,29.148-14.377,11.685-30.327,11.685-30.327S938.061,573.711,926.785,586.055Z" transform="translate(-412.183 -268.651)" fill="#3f3d56"/>
    <path id="Tracé_4" data-name="Tracé 4" d="M930,582.038c-3.412,16.367-17.754,27.223-17.754,27.223s-8.811-15.682-5.4-32.049S924.6,549.989,924.6,549.989,933.412,565.671,930,582.038Z" transform="translate(-409.029 -261.082)" fill="#6c63ff"/>
    <path id="Tracé_5" data-name="Tracé 5" d="M564.519,233.581V428.7L499.48,482.425H166.746V277.883l97.087-44.3Z" transform="translate(-58.192 -81.515)" fill="#3f3d56"/>
    <path id="Tracé_6" data-name="Tracé 6" d="M564.519,233.581v.782l-23.348,15.628L499.48,277.883H166.746l97.087-44.3Z" transform="translate(-58.192 -81.515)" opacity="0.1"/>
    <path id="Tracé_7" data-name="Tracé 7" d="M742.882,233.581V428.7l-65.039,53.728.471-205.013,41.219-27.42,22.971-16.41Z" transform="translate(-236.555 -81.515)" opacity="0.1"/>
    <path id="Tracé_8" data-name="Tracé 8" d="M534.459,270.3H331.8l15.082-8.483H541.058Z" transform="translate(-115.794 -91.368)" fill="#2f2e41"/>
    <path id="Tracé_9" data-name="Tracé 9" d="M1033.864,738.332s3.929,16.429.357,17.144-21.072.484-25.358,1.2-13.215-.484-13.215-3.7,9.286-5.357,9.286-5.357,13.215-7.143,13.572-7.5S1033.864,738.332,1033.864,738.332Z" transform="translate(-440.293 -326.81)" fill="#2f2e41"/>
    <path id="Tracé_10" data-name="Tracé 10" d="M1038.689,588.7s-1.071,12.143-1.071,13.215,1.071,17.858,0,18.572.714,5.715.714,7.5,5.714,31.43,4.286,42.859,2.143,10.358,1.071,11.429-1.071,1.072-1.071,3.214-11.429,3.929-11.429,3.929l-12.5-78.932,6.429-23.573Z" transform="translate(-448.334 -273.968)" fill="#575a89"/>
    <path id="Tracé_11" data-name="Tracé 11" d="M1038.689,588.7s-1.071,12.143-1.071,13.215,1.071,17.858,0,18.572.714,5.715.714,7.5,5.714,31.43,4.286,42.859,2.143,10.358,1.071,11.429-1.071,1.072-1.071,3.214-11.429,3.929-11.429,3.929l-12.5-78.932,6.429-23.573Z" transform="translate(-448.334 -273.968)" opacity="0.1"/>
    <path id="Tracé_12" data-name="Tracé 12" d="M1025.993,745.034s3.572,12.858,0,13.572-21.072-.818-25.358-.1-13.215.818-13.215-2.4,9.286-5.357,9.286-5.357,13.215-7.143,13.572-7.5S1025.993,745.034,1025.993,745.034Z" transform="translate(-437.421 -328.512)" fill="#2f2e41"/>
    <path id="Tracé_13" data-name="Tracé 13" d="M1035.4,567.713s4.286,10.358-.714,15.715-10.715,16.072-10.715,16.786,10,71.789,8.572,76.432-1.071,7.5-.714,8.215-3.572,4.643-7.857,4.643-10.715-3.214-11.429-6.072,1.071-27.5.714-32.144a53.819,53.819,0,0,0-2.857-12.858c-.714-1.429-4.643-2.857-5.357-7.143s-6.429-58.931-4.643-60.717S1035.4,567.713,1035.4,567.713Z" transform="translate(-441.832 -267.267)" fill="#575a89"/>
    <circle id="Ellipse_9" data-name="Ellipse 9" cx="12.143" cy="12.143" r="12.143" transform="translate(554.285 194.012)" fill="#ffb9b9"/>
    <path id="Tracé_14" data-name="Tracé 14" d="M1015.37,431.315s-2.5,13.215-.714,14.643-13.572,3.572-13.572,3.572-1.786-17.5-2.143-19.287S1015.37,431.315,1015.37,431.315Z" transform="translate(-441.44 -219.088)" fill="#ffb9b9"/>
    <path id="Tracé_15" data-name="Tracé 15" d="M995.3,453.408s4.286-12.5,21.787-8.929c0,0,3.214,1.071,2.143,2.143s-2.143,1.071-.714,2.143,3.214,0,2.143,1.071,9.643,7.5,8.929,19.644,2.5,29.287,0,32.144,1.786,15.358,1.071,17.858,4.286,5.715,2.143,6.786-40.716,7.5-41.788,0-.357-2.143-1.429-3.929-1.429-5-.714-8.929,2.5-13.572,1.786-17.144,0-33.573,2.143-37.145A18.531,18.531,0,0,0,995.3,453.408Z" transform="translate(-437.797 -224.037)" fill="#6c63ff"/>
    <path id="Tracé_16" data-name="Tracé 16" d="M1006.246,592.017s5.357,20.358-1.429,20.358-6.429-21.072-6.429-21.072Z" transform="translate(-441.248 -275.5)" fill="#ffb9b9"/>
    <path id="Tracé_17" data-name="Tracé 17" d="M1004.43,413.855c0,1.036,1.5,1.693,3.825,1.843h0a19.463,19.463,0,0,0,2.957-.057c1.486-.136,2.1,1.261,2.354,3.1.414,3.039-.164,7.3.5,7.968.922.921,7.64,0,9.74-2.093a1.941,1.941,0,0,0,.618-1.121,5.967,5.967,0,0,1,1.793-3.332c1.239-1.354,3-2.854,4.993-5.24,3.572-4.286,0-4.643-1.071-7.857s-2.857-4.286-2.857-6.429-8.215-3.929-15-3.572S1006.93,406,1006.93,406s-.4,1.036-.886,2.372a37.254,37.254,0,0,0-1.586,5.15A2.622,2.622,0,0,0,1004.43,413.855Z" transform="translate(-443.358 -207.7)" fill="#2f2e41"/>
    <path id="Tracé_18" data-name="Tracé 18" d="M1003.84,466.765s12.143-.714,13.215,17.144.714,34.644.714,35-5,34.287-9.643,34.287-8.215-.714-9.286-2.5,2.857-27.5,2.857-27.5,1.786-27.144-1.072-35.716S997.414,467.836,1003.84,466.765Z" transform="translate(-441.342 -232.037)" opacity="0.1"/>
    <path id="Tracé_19" data-name="Tracé 19" d="M1001.1,464.022s12.143-.714,13.215,17.144.714,34.644.714,35-5,34.287-9.643,34.287-8.215-.714-9.286-2.5,2.857-27.5,2.857-27.5,1.786-27.144-1.071-35.716S994.672,465.094,1001.1,464.022Z" transform="translate(-440.386 -231.08)" fill="#6c63ff"/>
    <path id="Tracé_20" data-name="Tracé 20" d="M689.209,189.848s-5.292-14.994-9.114-10.29,5.88,12.642,5.88,12.642Z" transform="translate(-329.86 -131.49)" fill="#a0616a"/>
    <path id="Tracé_21" data-name="Tracé 21" d="M716.727,173.273l-3.183,1.18s-1.521,6.758-.933,7.934.882.294,0,2.646-3.528,8.526-3.822,9.408-17.053-5.586-17.053-8.82c0,0-3.528,4.116-5.292,5,0,0,19.4,14.112,22.051,15.876s4.116.882,6.468-1.176,12.348-19.111,12.348-19.111Z" transform="translate(-332.387 -129.615)" fill="#575a89"/>
    <path id="Tracé_22" data-name="Tracé 22" d="M703.626,332.584s.294,3.234.882,3.528,5,7.644,0,9.114-7.938.882-9.114,1.47-21.757,1.764-22.051-1.47,10-3.822,10-3.822,9.408-6.174,10.878-9.408S703.626,332.584,703.626,332.584Z" transform="translate(-327.813 -184.553)" fill="#2f2e41"/>
    <path id="Tracé_23" data-name="Tracé 23" d="M800.684,342.628s7.056,12.054,5.292,13.524-18.944,6.827-21.463,7.056c-3.234.294-5.586-2.352-2.94-3.822s8.232-7.644,8.232-9.7v-5.292Z" transform="translate(-365.186 -188.717)" fill="#2f2e41"/>
    <path id="Tracé_24" data-name="Tracé 24" d="M780.32,221.6s6.174,7.644-3.528,19.993l-16.17,20.581s10,15.876,10.29,24.109,2.352,6.468,2.94,10,3.234,1.764,1.176,4.41-9.7,5-12.054,2.94a7.289,7.289,0,0,1-2.352-5.88c0-1.176-4.116-7.938-4.41-10s-11.172-18.817-11.172-18.817-3.528-10,.588-15.582,6.836-13.509,6.836-13.509-12.128,14.685-20.654,18.213c0,0-3.234.588-2.646,2.058s0,2.352-.882,3.822-7.056,18.523-9.114,22.933-1.176,7.056-3.528,8.526-12.936.294-12.936-1.176,1.47-5.292,2.352-7.35,7.938-25.873,7.35-29.989.294-9.7,4.7-12.054,26.755-21.463,27.931-21.463S780.32,221.6,780.32,221.6Z" transform="translate(-338.06 -146.479)" fill="#2f2e41"/>
    <circle id="Ellipse_10" data-name="Ellipse 10" cx="12.348" cy="12.348" r="12.348" transform="translate(370.816 4.26)" fill="#a0616a"/>
    <path id="Tracé_25" data-name="Tracé 25" d="M740.074,133.531s3.822,6.762,8.526,7.644-12.348,14.406-12.348,14.406-4.116-12.936-7.644-13.524S740.074,133.531,740.074,133.531Z" transform="translate(-346.913 -115.746)" fill="#a0616a"/>
    <path id="Tracé_26" data-name="Tracé 26" d="M727.992,164.405c0,3.822,11.466,14.7,11.466,14.7l10.878,9.114s.294,3.234,1.47,3.528,2.646.294,1.47,2.058-4.116,5.586-1.47,6.174a21.609,21.609,0,0,0,2.408.229c.706.041,1.535.079,2.467.115,2.176.076,4.9.126,7.847.106q1.257,0,2.558-.029c11.117-.221,23.994-1.5,22.941-5.713-1.764-7.056-.588-9.408-4.41-13.23s-10-17.053-10-17.053-12.348-20.875-22.639-20.875l-2.137-.562a4.895,4.895,0,0,0-5.342,2.052c-2.064,3.143-5.319,7.865-7.221,9.388-2.94,2.352-3.4.664-3.4.664S727.992,160.583,727.992,164.405Z" transform="translate(-346.886 -118.983)" fill="#575a89"/>
    <path id="Tracé_27" data-name="Tracé 27" d="M765.524,244.628S757,257.858,762.29,260.21s8.232-13.818,8.232-13.818Z" transform="translate(-358.251 -154.517)" fill="#a0616a"/>
    <path id="Tracé_28" data-name="Tracé 28" d="M732.12,121.426c-.474-.06-.624-.658-.7-1.129-.427-2.522-2.307-4.914-4.832-5.321a6.842,6.842,0,0,0-2.879.232,10.925,10.925,0,0,0-3.694,1.818,6.094,6.094,0,0,1-1.846,1.159c-.463.136-2.431,1.011-2.89,1.159-1.011.325-1.847,1.383-2.888,1.174-1-.2-1.374-1.4-1.534-2.406-.365-2.285.943-5.7,2.244-7.609a8.071,8.071,0,0,1,4.327-2.832,31.087,31.087,0,0,1,6-1.192,19.4,19.4,0,0,1,8.224.353c2.632.849,5.029,2.926,5.52,5.648.1.567.122,1.148.247,1.71.306,1.372,1.214,2.525,1.743,3.827a7.369,7.369,0,0,1-.225,5.974c-.733,1.474-2.008,2.891-1.733,4.515l-2.269-1.789a1.648,1.648,0,0,1-.757-1.929l.33-2.841a2.5,2.5,0,0,0-.147-1.536C733.349,118.648,732.911,121.526,732.12,121.426Z" transform="translate(-340.883 -106.213)" fill="#2f2e41"/>
    <path id="Tracé_29" data-name="Tracé 29" d="M771.2,191.245l-2.77,11.516c2.793.1,6.489.153,10.4.076.988-2.964,1.932-6.054,2.655-8.947,2.646-10.584-1.764-26.755-4.116-34.4s-8.232-9.7-8.232-9.7a26.814,26.814,0,0,0-6.762,3.528C758.559,155.963,771.2,191.245,771.2,191.245Z" transform="translate(-358.636 -121.42)" opacity="0.1"/>
    <path id="Tracé_30" data-name="Tracé 30" d="M770.429,193.818l-2.884,11.99c.706.041,1.535.079,2.467.115,2.176.076,4.9.126,7.847.106,1.061-3.149,2.087-6.471,2.861-9.564,2.646-10.584-1.764-26.755-4.116-34.4s-7.5.735-7.5.735,2.058-5-1.764-2.352S770.429,193.818,770.429,193.818Z" transform="translate(-360.216 -124.582)" opacity="0.1"/>
    <path id="Tracé_31" data-name="Tracé 31" d="M767.336,148.886s5.88,2.058,8.232,9.7,6.762,23.815,4.116,34.4-8.232,23.815-8.232,23.815-5.586-4.116-7.644-3.234l5.586-23.227s-12.643-35.281-8.82-37.928a26.814,26.814,0,0,1,6.762-3.528Z" transform="translate(-358.005 -121.105)" fill="#575a89"/>
    <path id="Tracé_32" data-name="Tracé 32" d="M518.975,178.335,437.632,8.828,301.62,74.1l50.022,104.237Z" transform="translate(-105.261 -3.081)" fill="#f2f2f2"/>
    <rect id="Rectangle_1" data-name="Rectangle 1" width="80.128" height="4.973" transform="translate(232.605 106.951) rotate(-25.635)" fill="#3f3d56"/>
    <rect id="Rectangle_2" data-name="Rectangle 2" width="80.128" height="4.973" transform="translate(251.731 146.808) rotate(-25.635)" fill="#3f3d56"/>
    <rect id="Rectangle_3" data-name="Rectangle 3" width="19.894" height="19.894" transform="translate(319.176 57.439) rotate(-25.635)" fill="#3f3d56"/>
    <rect id="Rectangle_4" data-name="Rectangle 4" width="19.894" height="19.894" transform="translate(338.302 97.297) rotate(-25.635)" fill="#3f3d56"/>
    <path id="Tracé_33" data-name="Tracé 33" d="M509.69,55.924,502.3,76.94l-9.957-3.5-1.363,3.877,13.821,4.857,8.761-24.888Z" transform="translate(-171.345 -19.516)" fill="#57b894"/>
    <path id="Tracé_34" data-name="Tracé 34" d="M539.07,117.146l-7.386,21.016-9.957-3.5-1.363,3.876,13.82,4.857,8.762-24.888Z" transform="translate(-181.598 -40.882)" fill="#57b894"/>
    <g id="woman" transform="translate(-0.003 193.82)">
      <rect id="Rectangle_5" data-name="Rectangle 5" width="37.579" height="37.579" transform="translate(44.6 168.675) rotate(167.942)" fill="#f2f2f2"/>
      <path id="right_hand" data-name="right hand" d="M204.214,591.492s-13.5,9.642-9,13.5,13.5-11.57,13.5-11.57Z" transform="translate(-160.633 -469.385)" fill="#ffb9b9"/>
      <path id="left_leg" data-name="left leg" d="M293.987,613.669s-2.571,32.139-3.214,36.638S289.487,695.3,288.2,699.8s-2.571,15.427-2.571,15.427h-7.713s.643-19.926-1.286-27.64-1.286-28.925-1.286-28.925-3.857-37.924-1.928-43.066S293.987,613.669,293.987,613.669Z" transform="translate(-188.057 -476.779)" fill="#ffb9b9"/>
      <path id="left_shoe" data-name="left shoe" d="M285.026,767.239s3.214,1.928,3.214,3.214-.643,4.5,0,5.785,5.142,6.428,2.571,7.713-14.141,0-14.141,0,.643-9,1.286-9.642-.643-7.071-.643-7.071Z" transform="translate(-189.38 -530.718)" fill="#2f2e41"/>
      <path id="right_leg" data-name="right leg" d="M228,612.924s-.817,32.231-.65,36.773-3.444,44.881-2.638,49.491.938,15.611.938,15.611l7.671.81s1.452-19.884,4.18-27.352,4.315-28.63,4.315-28.63,7.816-37.31,6.438-42.626S228,612.924,228,612.924Z" transform="translate(-171.207 -476.821)" fill="#ffb9b9"/>
      <path id="right_shoe" data-name="right shoe" d="M225.1,766.842s-3.4,1.58-3.533,2.859.167,4.542-.607,5.753-5.789,5.853-3.367,7.4,14.063,1.484,14.063,1.484.305-9.017-.266-9.723,1.381-6.964,1.381-6.964Z" transform="translate(-168.533 -530.579)" fill="#2f2e41"/>
      <path id="pants" d="M268.387,540.15s5.142.643,7.071,11.57,9,38.567,3.214,40.5-23.14,5.785-23.783,4.5-1.928-4.5-1.928-4.5,1.928,5.785-.643,5.785-27.64-3.857-27-5.785,1.928-16.07,1.928-16.07,3.857-23.783,7.713-27.64a10.541,10.541,0,0,0,3.214-8.356Z" transform="translate(-171.456 -451.468)" fill="#2f2e41"/>
      <path id="left_hand" data-name="left hand" d="M301,531.879s-8.356-1.928-9.642.643,3.214,6.428,5.142,6.428,5.142-1.928,5.142-1.928Z" transform="translate(-194.427 -448.339)" fill="#ffb9b9"/>
      <circle id="head" cx="11.57" cy="11.57" r="11.57" transform="translate(77.648 5.763)" fill="#ffb9b9"/>
      <path id="neck" d="M265.3,440.169s-1.928,9-.643,9-9.642,5.785-9.642,5.785l-8.356-1.286-2.571-3.857s13.5-9,13.5-14.141S265.3,440.169,265.3,440.169Z" transform="translate(-178.009 -414.479)" fill="#ffb9b9"/>
      <path id="upper_body" data-name="upper body" d="M252.278,456.524a9.422,9.422,0,0,1,2.571-1.286h5.142c.643,0,9,1.928,9,1.928l5.142,28.925s-9,14.784-2.571,26.354c0,0-1.928-1.286-10.927-.643s-25.068,2.571-25.711,2.571-.643-5.142,0-6.428-.643-.643-.643-3.857-1.928-9-1.928-9l-9-32.782s11.57-6.428,13.5-5.785,7.713,2.571,9,1.928A59.476,59.476,0,0,1,252.278,456.524Z" transform="translate(-170.773 -421.836)" fill="#6c63ff"/>
      <path id="left_arm" data-name="left arm" d="M290.492,458.822l1.928-.643s3.857-.643,8.356,3.214,21.212,15.426,21.212,15.426,6.428,5.142,4.5,10.927-5.142,19.926-14.784,19.283c0,0-5.785,7.713-9,6.428s-5.785-6.428-3.857-7.071,7.071-7.071,7.071-7.071L299.491,487.1h-1.928l-7.071-3.857Z" transform="translate(-194.204 -422.848)" fill="#6c63ff"/>
      <path id="right_arm" data-name="right arm" d="M222.546,465.112l-5.142.643s-4.5,1.928-3.857,10.284-3.857,46.28-1.928,50.78c0,0-6.428,21.855-5.142,22.5s9,4.5,8.356,1.928,7.071-20.569,7.071-20.569,9-9.642,5.142-23.14V496.608Z" transform="translate(-164.825 -425.281)" fill="#6c63ff"/>
      <path id="hair" d="M276.778,432.449l-8.171,1.78-1.05-4.024.4,4.164-13.183,2.872-.58-2.221.223,2.3-8.443,1.839-1.806-17.338c-1.857-7.115,4.92-14.7,12.035-16.554l3.156-.824c5.225-1.364,14.724-.124,16.088,5.1C273.063,418.655,268.993,428.643,276.778,432.449Z" transform="translate(-177.93 -403.93)" fill="#2f2e41"/>
    </g>
  </g>
</svg>
