<svg xmlns="http://www.w3.org/2000/svg" width="430" height="430" viewBox="0 0 430 430">
  <g id="Groupe_6" data-name="Groupe 6" transform="translate(-79 -248)">
    <circle id="Ellipse_5" data-name="Ellipse 5" cx="215" cy="215" r="215" transform="translate(79 248)" fill="#fff"/>
    <g id="Groupe_5" data-name="Groupe 5" transform="translate(74.73 12.906)">
      <path id="Intersection_2" data-name="Intersection 2" d="M184.34,230.891v-3.515q-39.03-40.072-64.827-72.329T63.531,87.015Q33.346,51.241,32.643,51.241q-1.758,0-3.515,3.076T25,78.663a470.416,470.416,0,0,0-2.373,51.152q0,32.871,3.164,74.531l2.636,4.922v4.043q0,5.8-1.581,7.207v.351q0,1.231,1.845,6.329a28.839,28.839,0,0,1,1.846,9.843v2.11q-4.447,6.5-14.938,6.5-2.31,0-3.021-2.812-3.2.351-10.492,3.164-2.134-3.34-2.134-10.723,0-6.855,2.543-23.378a2.249,2.249,0,0,0,2.361-1.582q.545-1.582.985-8.878t1.142-12.568q-2.637-3.164-2.636-5.1l.351-1.055q3.34-2.11,3.34-7.559l.7-20.918-.351-28.125q0-18.457,1.406-25.928A68.151,68.151,0,0,0,11.2,90.264q0-2.812-.527-8.877t-.527-6.768A149.715,149.715,0,0,1,11.2,54.756a134.956,134.956,0,0,0,1.055-18.281L10.846,30.5q.7-1.933.7-8.437,0-8.087-.351-12.832a24.467,24.467,0,0,1,3.179-3.6Q16.321,3.78,17.2,2.9a3.391,3.391,0,0,1,1.324-.967q.441-.088,4.682-1.319Q26.74.964,35.4,14.093,50.584,37.2,66.9,53.04q-.348,0-.348.706,0,1.936,19.038,22.793T130.07,128.9l15.79,19.713q8.248,10.033,16.51,19.613t19.424,21.446q11.162,11.865,13.1,12.568.8.292,1.425.463a50.8,50.8,0,0,0,2.608-8.488l-.165-5.686.7-22.676-.351-30.587q0-17.929.7-47.636l.879-25.84q0-10.02-2.285-12.657a7.775,7.775,0,0,1-.352-2.461,24.513,24.513,0,0,1,.527-4.483,23.7,23.7,0,0,0,.527-3.779,5.437,5.437,0,0,0-.352-2.285,48.933,48.933,0,0,0,.352-6.855,19.03,19.03,0,0,0-1.055-6.68A20.816,20.816,0,0,1,197,15.381a11.033,11.033,0,0,1,2.284-7.04q-.329-3.34-.329-5.3a9.531,9.531,0,0,1,1.211-5.333,5.8,5.8,0,0,1,4.041-2.263q2.828-.486,10.586-1.374a145.114,145.114,0,0,1,16.485-.889,136.9,136.9,0,0,1,29.739,2.991,94.2,94.2,0,0,1,25.779,9.94q12.363,6.95,17.212,14.788a67.621,67.621,0,0,1,7.273,15.758A52.34,52.34,0,0,1,313.7,52.013q0,42.345-55.274,64.326-3.88,2.909-3.879,5.171,0,3.879,6.54,8.979t24.466,16.6a65.915,65.915,0,0,1,11.144,7.286q6.46,5.019,8.72,6.638a47.015,47.015,0,0,1,12.111,6.719q5.328,4.13,8.64,4.938a19.509,19.509,0,0,1,4.118,1.294q0,1.458,2.26,3.237a120.994,120.994,0,0,1,14.535,9.23q8.559,6.152,11.993,6.152a5.252,5.252,0,0,0,1.963-.28,7.667,7.667,0,0,1,1.633,5.134q0,5.775-5.252,11.311t-9.293,5.536q-2.909,0-8.566-6.142l-9.212-9.051q-10.174-10.036-35.128-24.764t-66.463-43.54l-2.008-8.672v-1.282a3.07,3.07,0,0,1,2.586-3.133q2.587-.724,7.6-2.489,30.707-10.021,42.991-23.678t12.283-36.769q0-27.637-16.117-39.516A60.749,60.749,0,0,0,239.078,3.365h-6.965a15.526,15.526,0,0,0-6.273,1.282q.169.09.339.187l-3.164,11.25a141.69,141.69,0,0,0-3.677,15.209q.3,3.5.3,9.245l-1.66,40.244q0,9.536.152,15.031l.452,11.8-.6,7.273q-.6,8.567-.6,18.264,0,8.888,2.586,80.81a32.492,32.492,0,0,0-2.49,3.556,11.9,11.9,0,0,1-1.107,1.525,58.328,58.328,0,0,1,.846,7.984q0,10.2-3.252,16.788t-7.646,6.592Q199.28,250.4,184.34,230.891Z" transform="translate(51.531 328.302)" fill="#3f3d56"/>
    </g>
  </g>
</svg>
